name ./resultDataOpenSim/trcMotMarkerGrf/sub09/grf-12-03.mot
datacolumns 19
datarows 12
range 0.46400000 0.50800000
endheader

                time	     ground_force_vx	     ground_force_vy	     ground_force_vz	     ground_force_px	     ground_force_py	     ground_force_pz	   l_ground_force_vx	   l_ground_force_vy	   l_ground_force_vz	   l_ground_force_px	   l_ground_force_py	   l_ground_force_pz	     ground_torque_x	     ground_torque_y	     ground_torque_z	   l_ground_torque_x	   l_ground_torque_y	   l_ground_torque_z	
          0.46400000	         46.42222564	        406.55041715	        -17.74471032	         -0.65052488	          0.00000000	          0.07169393	          0.00000000	          0.00000000	          0.00000000	          0.00000000	          0.00000000	          0.00000000	          0.00000000	          5.29012506	          0.00000000	          0.00000000	          0.00000000	          0.00000000	
          0.46800000	         51.14206471	        418.67057709	        -20.70288789	         -0.64873609	          0.00000000	          0.07300938	          0.00000000	          0.00000000	          0.00000000	          0.00000000	          0.00000000	          0.00000000	          0.00000000	          5.29227602	          0.00000000	          0.00000000	          0.00000000	          0.00000000	
          0.47200000	         55.91314723	        431.47997798	        -23.94004363	         -0.64702025	          0.00000000	          0.07428393	          0.00000000	          0.00000000	          0.00000000	          0.00000000	          0.00000000	          0.00000000	          0.00000000	          5.25445560	          0.00000000	          0.00000000	          0.00000000	          0.00000000	
          0.47600000	         60.71721977	        444.95203760	        -27.17639266	         -0.64527202	          0.00000000	          0.07551586	          0.00000000	          0.00000000	          0.00000000	          0.00000000	          0.00000000	          0.00000000	          0.00000000	          5.21900365	          0.00000000	          0.00000000	          0.00000000	          0.00000000	
          0.48000000	         65.50852191	        458.98645582	        -30.14360856	         -0.64329396	          0.00000000	          0.07671594	          0.00000000	          0.00000000	          0.00000000	          0.00000000	          0.00000000	          0.00000000	          0.00000000	          5.22349770	          0.00000000	          0.00000000	          0.00000000	          0.00000000	
          0.48400000	         70.24432921	        473.65213068	        -32.65754140	         -0.64107514	          0.00000000	          0.07785530	          0.00000000	          0.00000000	          0.00000000	          0.00000000	          0.00000000	          0.00000000	          0.00000000	          5.29142205	          0.00000000	          0.00000000	          0.00000000	          0.00000000	
          0.48800000	         74.87825758	        489.24872506	        -34.66515418	         -0.63886628	          0.00000000	          0.07885373	          0.00000000	          0.00000000	          0.00000000	          0.00000000	          0.00000000	          0.00000000	          0.00000000	          5.42557232	          0.00000000	          0.00000000	          0.00000000	          0.00000000	
          0.49200000	         79.34165899	        506.02939118	        -36.25884387	         -0.63691382	          0.00000000	          0.07964978	          0.00000000	          0.00000000	          0.00000000	          0.00000000	          0.00000000	          0.00000000	          0.00000000	          5.60587125	          0.00000000	          0.00000000	          0.00000000	          0.00000000	
          0.49600000	         83.56547273	        523.86571145	        -37.65828224	         -0.63514841	          0.00000000	          0.08027923	          0.00000000	          0.00000000	          0.00000000	          0.00000000	          0.00000000	          0.00000000	          0.00000000	          5.79295885	          0.00000000	          0.00000000	          0.00000000	          0.00000000	
          0.50000000	         87.51383212	        542.31121204	        -39.14299703	         -0.63321596	          0.00000000	          0.08084550	          0.00000000	          0.00000000	          0.00000000	          0.00000000	          0.00000000	          0.00000000	          0.00000000	          5.93763625	          0.00000000	          0.00000000	          0.00000000	          0.00000000	
          0.50400000	         91.17716340	        561.08453247	        -40.94772056	         -0.63087368	          0.00000000	          0.08138402	          0.00000000	          0.00000000	          0.00000000	          0.00000000	          0.00000000	          0.00000000	          0.00000000	          5.99397427	          0.00000000	          0.00000000	          0.00000000	          0.00000000	
          0.50800000	         94.57032931	        580.38285771	        -43.16396792	         -0.62842486	          0.00000000	          0.08179212	          0.00000000	          0.00000000	          0.00000000	          0.00000000	          0.00000000	          0.00000000	          0.00000000	          5.93198714	          0.00000000	          0.00000000	          0.00000000	          0.00000000	
